HIERARCHY
ROOT Hips
{
	OFFSET 48.115101 -3.977755 93.700897
	CHANNELS 6 Xposition Yposition Zposition Xrotation Yrotation Zrotation
	JOINT spine
	{
		OFFSET 0.000000 -0.448574 7.800591
		CHANNELS 3 Xrotation Yrotation Zrotation
		JOINT spine1
		{
			OFFSET 0.000000 -0.000001 10.136398
			CHANNELS 3 Xrotation Yrotation Zrotation
			JOINT spine2
			{
				OFFSET 0.000000 -0.000001 9.712509
				CHANNELS 3 Xrotation Yrotation Zrotation
				JOINT Neck
				{
					OFFSET 0.000000 -1.188874 24.936104
					CHANNELS 3 Xrotation Yrotation Zrotation
					JOINT Head
					{
						OFFSET 0.000000 -0.000001 7.533844
						CHANNELS 3 Xrotation Yrotation Zrotation
						End Site
						{
							OFFSET 0.000000 6.014017 18.236099
						}
					}
				}
				JOINT RightShoulder
				{
					OFFSET -4.089649 0.569455 10.488808
					CHANNELS 3 Xrotation Yrotation Zrotation
					JOINT RightArm
					{
						OFFSET 0.000000 -0.000002 13.757004
						CHANNELS 3 Xrotation Yrotation Zrotation
						JOINT RightArmRoll
						{
							OFFSET 0.000000 -0.000001 6.944778
							CHANNELS 3 Xrotation Yrotation Zrotation
							JOINT RightForeArm
							{
								OFFSET 0.000000 -0.000003 20.227692
								CHANNELS 3 Xrotation Yrotation Zrotation
								JOINT RightForeArmRoll
								{
									OFFSET 0.000000 -0.000001 7.793121
									CHANNELS 3 Xrotation Yrotation Zrotation
									JOINT RightHand
									{
										OFFSET 0.000000 -0.000003 15.639099
										CHANNELS 3 Xrotation Yrotation Zrotation
										End Site
										{
											OFFSET 0.000000 0.000000 0.100006
										}
									}
								}
							}
						}
					}
				}
				JOINT LeftShoulder
				{
					OFFSET 4.089649 0.569455 10.488808
					CHANNELS 3 Xrotation Yrotation Zrotation
					JOINT LeftArm
					{
						OFFSET 0.000000 -0.000002 13.757004
						CHANNELS 3 Xrotation Yrotation Zrotation
						JOINT LeftArmRoll
						{
							OFFSET 0.000000 -0.000001 6.944778
							CHANNELS 3 Xrotation Yrotation Zrotation
							JOINT LeftForeArm
							{
								OFFSET 0.000000 -0.000003 20.227692
								CHANNELS 3 Xrotation Yrotation Zrotation
								JOINT LeftForeArmRoll
								{
									OFFSET 0.000000 -0.000001 7.793121
									CHANNELS 3 Xrotation Yrotation Zrotation
									JOINT LeftHand
									{
										OFFSET 0.000000 -0.000003 15.639099
										CHANNELS 3 Xrotation Yrotation Zrotation
										End Site
										{
											OFFSET 0.000000 0.000000 0.100006
										}
									}
								}
							}
						}
					}
				}
			}
		}
	}
	JOINT RightUpLeg
	{
		OFFSET -6.914158 1.063580 -1.267883
		CHANNELS 3 Xrotation Yrotation Zrotation
		JOINT RightUpLegRoll
		{
			OFFSET 0.000000 -0.000003 18.337799
			CHANNELS 3 Xrotation Yrotation Zrotation
			JOINT RightLeg
			{
				OFFSET 0.000000 0.000004 -22.708496
				CHANNELS 3 Xrotation Yrotation Zrotation
				JOINT RightLegRoll
				{
					OFFSET 0.000000 -0.000004 22.782799
					CHANNELS 3 Xrotation Yrotation Zrotation
					JOINT RightFoot
					{
						OFFSET 0.000000 -0.000003 18.962898
						CHANNELS 3 Xrotation Yrotation Zrotation
						JOINT RightToeBase
						{
							OFFSET 0.000000 -0.000003 15.852005
							CHANNELS 3 Xrotation Yrotation Zrotation
							End Site
							{
								OFFSET 0.006718 0.884892 7.677002
							}
						}
					}
				}
			}
		}
	}
	JOINT LeftUpLeg
	{
		OFFSET 6.914158 1.063580 -1.267883
		CHANNELS 3 Xrotation Yrotation Zrotation
		JOINT LeftUpLegRoll
		{
			OFFSET 0.000000 -0.000003 18.337898
			CHANNELS 3 Xrotation Yrotation Zrotation
			JOINT LeftLeg
			{
				OFFSET 0.000000 -0.000004 22.708397
				CHANNELS 3 Xrotation Yrotation Zrotation
				JOINT LeftLegRoll
				{
					OFFSET 0.000000 -0.000004 22.993408
					CHANNELS 3 Xrotation Yrotation Zrotation
					JOINT LeftFoot
					{
						OFFSET 0.000000 -0.000003 18.752197
						CHANNELS 3 Xrotation Yrotation Zrotation
						JOINT LeftToeBase
						{
							OFFSET 0.000000 -0.000003 15.852005
							CHANNELS 3 Xrotation Yrotation Zrotation
							End Site
							{
								OFFSET -0.030113 0.884891 7.677017
							}
						}
					}
				}
			}
		}
	}
}
MOTION
Frames: 4
Frame Time: 0.041667
48.452999 -11.226614 93.554901 -3.384023 -0.463663 0.696311 0.141506 -0.099465 0.286888 4.279625 -0.195985 0.575023 5.924674 -0.188663 0.577319 17.242094 12.631528 -3.499472 -16.277910 -11.610033 -4.019952 -16.945708 -71.213970 -20.169113 -49.446973 -102.963524 -39.128873 -0.000000 0.000022 0.000000 23.464726 -11.725913 1.263130 -0.000001 0.000004 -2.999999 -5.000362 -7.998703 0.000218 -4.425506 65.718741 5.859547 2.193089 105.960092 -15.514601 0.000002 0.000011 0.000000 21.532429 5.231007 0.326607 0.000001 -0.000001 3.000000 -5.000338 7.999351 -0.000116 -4.310727 176.836944 -2.695386 -179.999991 0.000005 -1.224006 163.659966 -0.974970 -0.761830 -0.000005 -0.000001 0.514043 73.399842 7.879620 -1.087400 25.458308 -7.351329 0.000426 -3.437202 -177.064280 7.930590 -0.000005 -0.000005 -1.471789 -16.891341 4.777747 0.973696 -0.000002 -0.000006 -0.361788 74.734673 -7.780782 1.017628 25.461306 7.352478 -0.000567 
48.449501 -11.206916 93.613800 -3.362842 -0.463853 0.693948 0.148004 -0.100721 0.285650 4.293116 -0.199164 0.572783 5.938165 -0.191407 0.575108 17.140315 12.682119 -3.501993 -16.289509 -11.648179 -4.036360 -16.920074 -71.153250 -20.140175 -49.104163 -102.973776 -38.866539 -0.000000 0.000022 -0.000000 23.579340 -11.746102 1.279099 -0.000001 0.000005 -3.000001 -5.000361 -7.998703 0.000218 -4.454899 65.689324 5.890329 2.082265 105.998020 -15.475849 0.000002 0.000012 0.000001 21.353231 5.176292 0.337857 -0.000002 -0.000002 2.999999 -5.000339 7.999351 -0.000116 -4.353136 176.829158 -2.700929 -179.999991 0.000005 -1.224006 163.595598 -0.967939 -0.763941 -0.000005 -0.000000 0.514314 73.442121 7.877559 -1.088374 25.458309 -7.351329 0.000426 -3.408418 -177.096136 7.859474 -0.000005 -0.000005 -1.464830 -16.833402 4.828329 0.975613 -0.000002 -0.000006 -0.363921 74.738819 -7.813972 1.119550 25.461308 7.352478 -0.000567 
48.451397 -11.232215 93.597992 -3.342169 -0.464028 0.691565 0.154491 -0.102017 0.284384 4.306587 -0.202474 0.570502 5.951636 -0.194251 0.572855 17.039396 12.733620 -3.504476 -16.301269 -11.686991 -4.052831 -16.894135 -71.092051 -20.110847 -48.756766 -102.983379 -38.602276 -0.000000 0.000021 -0.000001 23.698060 -11.767130 1.295806 -0.000001 0.000004 -3.000001 -5.000361 -7.998703 0.000218 -4.484266 65.659298 5.921025 1.977623 106.035067 -15.440703 0.000003 0.000010 0.000000 21.176585 5.124039 0.348041 0.000001 -0.000002 3.000000 -5.000338 7.999351 -0.000114 -4.392221 176.823339 -2.706359 -179.999991 0.000005 -1.222995 163.536517 -0.960924 -0.765959 -0.000006 -0.000001 0.514399 73.482003 7.875591 -1.089264 25.458309 -7.351329 0.000426 -3.374968 -177.127992 7.789791 -0.000005 -0.000004 -1.457620 -16.768825 4.878139 0.976970 -0.000003 -0.000006 -0.365898 74.740397 -7.847096 1.221003 25.461306 7.352478 -0.000567 
48.439201 -11.230216 93.591797 -3.321869 -0.464190 0.689167 0.160965 -0.103341 0.283098 4.320058 -0.205876 0.568193 5.965107 -0.197166 0.570573 16.938885 12.785580 -3.506779 -16.313167 -11.726366 -4.069387 -16.867994 -71.030484 -20.081245 -48.406473 -102.992621 -38.336984 -0.000000 0.000022 -0.000000 23.819721 -11.788629 1.313022 -0.000001 0.000004 -3.000000 -5.000363 -7.998704 0.000218 -4.513585 65.628679 5.951614 1.877345 106.072189 -15.408186 0.000002 0.000012 -0.000001 21.001659 5.073516 0.357414 -0.000001 -0.000002 3.000000 -5.000341 7.999351 -0.000117 -4.428999 176.816508 -2.711522 -179.999991 0.000005 -1.221997 163.481247 -0.954900 -0.767175 -0.000004 -0.000001 0.514356 73.520088 7.873792 -1.090303 25.458309 -7.351329 0.000426 -3.338241 -177.159821 7.721084 -0.000005 -0.000004 -1.450230 -16.699710 4.927401 0.977901 -0.000002 -0.000006 -0.367766 74.740028 -7.880282 1.322310 25.461311 7.352478 -0.000567 
